<svg width="374" height="374" viewBox="0 0 374 374" fill="none" xmlns="http://www.w3.org/2000/svg">
<path fill-rule="evenodd" clip-rule="evenodd" d="M77.379 120.369C93.8943 86.6394 124.507 71.6017 161.841 67.768C198.015 64.0536 239.542 83.5295 265.449 109.033C289.939 133.142 316.861 158.177 316.713 192.567C316.554 229.448 295.44 263.622 264.697 283.998C234.438 304.053 196.03 307.333 161.841 295.213C129.34 283.691 97.8881 270.478 85.5411 238.267C73.3258 206.4 62.3619 151.038 77.379 120.369Z" fill="url(#paint0_linear_104_190)"/>
<line x1="1.5" y1="-1.5" x2="31.5621" y2="-1.5" transform="matrix(-0.0288564 0.999584 0.999584 0.0288564 195.223 284.008)" stroke="#FF6B0A" stroke-width="3" stroke-linecap="round"/>
<path d="M178.483 323.775L194.547 315.021" stroke="#FF6B0A" stroke-width="3" stroke-linecap="round"/>
<path d="M188.296 325.367L195.222 315.453" stroke="#FF6B0A" stroke-width="3" stroke-linecap="round"/>
<path d="M174.168 316.892L192.915 314.801" stroke="#FF6B0A" stroke-width="3" stroke-linecap="round"/>
<path d="M141.443 252.506C152.361 293.792 196.636 349.515 286.389 242.112C233.489 218.638 130.44 187.853 141.443 252.506Z" fill="url(#paint1_linear_104_190)"/>
<path d="M181.364 160.926C189.681 140.964 177.898 133.201 170.967 131.815C165.769 135.281 147.262 142.212 156.412 142.212C165.561 142.212 162.996 154.688 160.57 160.926C115.656 221.644 141.856 255.537 155.372 264.894C170.967 258.656 196.959 244.309 176.166 236.823C150.174 227.466 170.967 185.879 181.364 160.926Z" fill="url(#paint2_linear_104_190)"/>
<ellipse rx="10.0949" ry="29.2087" transform="matrix(-0.00903533 0.999959 0.999959 0.00903533 196.11 293.143)" fill="url(#paint3_radial_104_190)"/>
<path d="M210.574 295.361L210.574 319.805" stroke="#FF6B0A" stroke-width="3" stroke-linecap="round"/>
<path d="M193.933 328.651L209.997 319.897" stroke="#FF6B0A" stroke-width="3" stroke-linecap="round"/>
<path d="M203.745 330.244L210.672 320.329" stroke="#FF6B0A" stroke-width="3" stroke-linecap="round"/>
<path d="M189.618 321.769L208.365 319.677" stroke="#FF6B0A" stroke-width="3" stroke-linecap="round"/>
<path d="M211.107 183.891C147.274 204.51 160.484 225.321 175.068 233.15C179.274 239.973 192.494 230.816 198.578 225.385C198.69 222.111 200.798 214.371 208.337 209.601C215.876 204.832 213.703 202.845 211.674 202.447C222.235 193.59 216.439 194.178 212.221 195.579C246.026 177.256 223.007 179.795 211.107 183.891Z" fill="#D9D9D9"/>
<path d="M213.426 185.035C148.777 207.067 162.683 227.697 177.717 235.258C182.149 242.024 195.435 232.553 201.524 226.972C201.569 223.682 203.556 215.864 211.142 210.917C218.729 205.97 216.471 204.019 214.394 203.662C224.976 194.547 219.079 195.258 214.808 196.752C242.616 176.915 225.474 180.676 213.426 185.035Z" fill="#FAFAFA"/>
<path d="M145.245 157.198C164.785 167.973 173.856 161.687 175.948 157.198C190.216 148.714 186.906 119.76 162.48 119.76C138.054 119.76 120.819 143.729 145.245 157.198Z" fill="white"/>
<path d="M158.631 149.292L155.519 147.289C149.932 143.69 143.196 142.323 136.647 143.457C136.277 143.521 135.98 143.798 135.89 144.163L129.584 169.702C129.128 171.548 131.263 172.929 132.76 171.755L158.728 151.384C159.424 150.839 159.374 149.771 158.631 149.292Z" fill="#DF5B04"/>
<path d="M159.185 149.143L156.635 147.557C150.623 143.818 143.462 142.379 136.472 143.505C136.199 143.549 135.954 143.7 135.791 143.924L120.093 165.522C118.879 167.193 120.685 169.384 122.556 168.51L159.045 151.486C160.005 151.038 160.085 149.703 159.185 149.143Z" fill="#FF6B0A"/>
<circle cx="136.684" cy="136.881" r="2.51109" fill="#797979"/>
<circle cx="162.48" cy="139.392" r="2.51109" fill="#797979"/>
<path d="M144.282 105.519L144.851 102.52L180.704 109.319L177.62 125.584L176.36 125.346L146.459 121.574L141.766 118.786L143.91 107.479L143.734 107.47L143.76 105.516L144.282 105.519Z" fill="#0C0632"/>
<ellipse cx="162.193" cy="109.018" rx="18.7695" ry="1.86542" transform="rotate(10.7376 162.193 109.018)" fill="#0C0632"/>
<path d="M141.342 118.759C129.127 119.463 117.532 135.272 168.488 126.928L141.342 118.759Z" fill="#0C0632"/>
<path d="M141.258 118.627C143.159 124.285 173.986 129.828 178.152 125.623L180.597 112.543C175.16 113.278 165.488 108.371 157.126 109.805L146.444 119.308L143.76 105.516L141.258 118.627Z" fill="#494600"/>
<ellipse cx="162.73" cy="106.148" rx="18.242" ry="1.86542" transform="rotate(10.7376 162.73 106.148)" fill="#0C0632"/>
<ellipse cx="162.459" cy="109.068" rx="18.4987" ry="1.86542" transform="rotate(10.7376 162.459 109.068)" fill="#0C0632"/>
<path d="M148.222 107.614C148.276 107.683 148.323 107.737 148.36 107.795C148.679 108.272 148.806 108.737 148.713 109.297C148.674 109.534 148.606 109.769 148.552 110.001C148.504 110.206 148.457 110.407 148.412 110.613C148.401 110.667 148.386 110.686 148.324 110.673C148.195 110.639 148.068 110.659 147.974 110.761C147.888 110.85 147.87 110.959 147.904 111.07C147.938 111.185 148.024 111.257 148.133 111.3C148.188 111.32 148.232 111.311 148.28 111.27C148.65 110.966 148.935 110.599 149.149 110.174C149.325 109.821 149.428 109.442 149.544 109.071C149.611 108.861 149.687 108.649 149.747 108.436C149.786 108.302 149.835 108.179 149.913 108.063C149.992 107.947 150.093 107.852 150.222 107.779C150.283 107.911 150.303 108.051 150.283 108.187C150.262 108.316 150.224 108.446 150.184 108.568C150.141 108.701 150.079 108.827 150.03 108.953C149.897 109.289 149.761 109.623 149.639 109.962C149.44 110.529 149.394 111.109 149.51 111.699C149.524 111.777 149.568 111.814 149.641 111.832C149.822 111.88 150.003 111.793 150.062 111.628C150.117 111.475 150.03 111.288 149.86 111.219C149.799 111.193 149.803 111.17 149.829 111.121C149.958 110.867 150.084 110.607 150.208 110.351C150.354 110.061 150.48 109.765 150.707 109.525C151.007 109.208 151.34 109.043 151.768 108.946C151.799 108.94 151.83 108.935 151.875 108.926C151.863 108.959 151.855 108.981 151.847 109.003C151.341 110.415 150.856 111.769 150.351 113.181C150.322 113.262 150.322 113.262 150.245 113.234C149.955 113.13 149.661 113.025 149.371 112.921C149.319 112.903 149.292 112.909 149.263 112.956C149.04 113.313 148.727 113.563 148.321 113.689C148.237 113.717 148.154 113.762 148.071 113.798C147.974 113.549 147.789 113.334 147.73 113.062C147.681 112.839 147.659 112.612 147.694 112.386C147.7 112.335 147.683 112.312 147.639 112.297C147.342 112.19 147.048 112.085 146.75 111.978C146.699 111.96 146.681 111.941 146.702 111.883C147.21 110.463 147.699 109.098 148.207 107.679C148.203 107.669 148.208 107.654 148.222 107.614ZM148.313 108.379C148.304 108.38 148.293 108.376 148.285 108.377C148.275 108.403 148.266 108.429 148.257 108.454C148.013 109.137 147.788 109.764 147.543 110.447C147.503 110.56 147.503 110.56 147.62 110.602C147.665 110.618 147.69 110.615 147.717 110.575C147.81 110.455 147.934 110.385 148.079 110.363C148.141 110.352 148.16 110.322 148.171 110.268C148.228 110.004 148.283 109.736 148.351 109.476C148.419 109.204 148.431 108.986 148.381 108.709C148.364 108.595 148.335 108.49 148.313 108.379ZM151.335 109.474C151.327 109.471 151.325 109.466 151.317 109.464C151.285 109.485 151.253 109.506 151.224 109.529C151.002 109.697 150.823 109.826 150.694 110.072C150.532 110.385 150.378 110.7 150.22 111.014C150.197 111.055 150.197 111.088 150.232 111.13C150.328 111.242 150.381 111.372 150.381 111.524C150.38 111.594 150.416 111.623 150.518 111.639C150.58 111.649 150.574 111.598 150.586 111.565C150.834 110.872 151.063 110.233 151.312 109.536C151.324 109.515 151.332 109.494 151.335 109.474ZM147.974 111.581C147.957 111.571 147.936 111.559 147.913 111.542C147.7 111.409 147.561 111.231 147.572 110.967C147.573 110.931 147.564 110.911 147.529 110.903C147.504 110.893 147.478 110.884 147.452 110.875C147.415 110.862 147.396 110.871 147.382 110.908C147.284 111.181 147.185 111.459 147.091 111.734C147.086 111.748 147.103 111.792 147.118 111.797C147.315 111.872 147.517 111.944 147.716 112.011C147.731 112.017 147.77 112.002 147.778 111.988C147.843 111.855 147.907 111.721 147.974 111.581ZM149.546 112.144C149.508 112.295 149.477 112.44 149.441 112.588C149.43 112.629 149.459 112.64 149.489 112.65C149.676 112.717 149.861 112.779 150.047 112.85C150.105 112.871 150.132 112.856 150.148 112.8C150.231 112.554 150.323 112.311 150.412 112.063C150.452 111.949 150.452 111.949 150.338 111.909C150.305 111.897 150.276 111.886 150.25 111.923C150.107 112.114 149.908 112.174 149.68 112.163C149.632 112.158 149.586 112.146 149.546 112.144ZM149.136 110.836C148.932 111.08 148.732 111.317 148.482 111.516C148.569 111.633 148.649 111.744 148.734 111.853C148.745 111.869 148.784 111.875 148.807 111.871C148.923 111.846 149.035 111.812 149.151 111.788C149.187 111.78 149.201 111.765 149.194 111.725C149.138 111.454 149.133 111.18 149.141 110.903C149.136 110.881 149.137 110.857 149.136 110.836ZM148.026 112.443C147.943 112.628 148.009 113.08 148.113 113.17C148.118 113.168 148.123 113.166 148.123 113.166C148.191 112.976 148.263 112.788 148.326 112.6C148.331 112.586 148.313 112.554 148.3 112.546C148.211 112.505 148.117 112.476 148.026 112.443ZM148.419 113.288C148.61 113.254 148.933 112.929 148.96 112.774C148.879 112.745 148.791 112.713 148.71 112.684C148.662 112.667 148.641 112.68 148.625 112.724C148.57 112.877 148.516 113.03 148.461 113.184C148.445 113.215 148.433 113.248 148.419 113.288ZM148.257 112.201C148.305 112.218 148.355 112.24 148.406 112.25C148.42 112.255 148.46 112.237 148.46 112.224C148.496 112.056 148.443 111.88 148.302 111.789C148.271 111.769 148.25 111.77 148.231 111.8C148.181 111.894 148.135 111.988 148.083 112.085C148.067 112.12 148.084 112.143 148.117 112.155C148.162 112.167 148.21 112.184 148.257 112.201ZM148.933 112.443C148.977 112.459 149.018 112.473 149.062 112.489C149.104 112.508 149.137 112.499 149.146 112.449C149.168 112.354 149.19 112.259 149.208 112.162C149.216 112.116 149.198 112.097 149.148 112.096C148.995 112.086 148.816 112.191 148.761 112.332C148.756 112.347 148.773 112.381 148.786 112.39C148.836 112.412 148.885 112.426 148.933 112.443Z" fill="#FFD500"/>
<ellipse cx="170.463" cy="150.669" rx="9.32012" ry="10.1731" transform="rotate(40.381 170.463 150.669)" fill="url(#paint4_radial_104_190)"/>
<ellipse cx="235.259" cy="173.966" rx="39.4631" ry="54.059" transform="rotate(-49.5284 235.259 173.966)" fill="#C4C4C4"/>
<ellipse cx="238.417" cy="170.265" rx="34.5978" ry="54.059" transform="rotate(-49.5284 238.417 170.265)" fill="white"/>
<path d="M225.282 171.566L258.258 144.536L239.337 181.296C229.39 182.594 225.823 175.35 225.282 171.566Z" fill="#C4C4C4"/>
<ellipse cx="258.637" cy="144.536" rx="9.1744" ry="12.5677" transform="rotate(-49.5284 258.637 144.536)" fill="#C4C4C4"/>
<ellipse cx="259.371" cy="143.676" rx="8.04331" ry="12.5677" transform="rotate(-49.5284 259.371 143.676)" fill="white"/>
<path d="M256.096 143.803L265.826 135.887L260.243 146.653C257.308 147.033 256.255 144.912 256.096 143.803Z" fill="#C4C4C4"/>
<path d="M238.136 194.702C174.303 215.321 187.513 236.133 202.097 243.961C206.303 250.784 219.523 241.628 225.608 236.197C225.719 232.923 227.827 225.183 235.366 220.413C242.906 215.644 240.732 213.656 238.703 213.259C249.264 204.402 243.468 204.99 239.251 206.39C273.056 188.068 250.037 190.607 238.136 194.702Z" fill="#D9D9D9"/>
<path d="M240.456 195.847C175.807 217.879 189.712 238.509 204.746 246.07C209.178 252.836 222.464 243.365 228.554 237.784C228.599 234.494 230.585 226.676 238.172 221.729C245.758 216.782 243.501 214.831 241.424 214.474C252.005 205.359 246.108 206.069 241.837 207.564C269.646 187.727 252.503 191.487 240.456 195.847Z" fill="#F8F8F8"/>
<defs>
<linearGradient id="paint0_linear_104_190" x1="75.7324" y1="122.76" x2="298.268" y2="251.24" gradientUnits="userSpaceOnUse">
<stop stop-color="#A5DEFF"/>
<stop offset="1" stop-color="#BDE7FF"/>
</linearGradient>
<linearGradient id="paint1_linear_104_190" x1="174.142" y1="257.077" x2="290.366" y2="239.521" gradientUnits="userSpaceOnUse">
<stop stop-color="#F2F2F2"/>
<stop offset="1" stop-color="white"/>
</linearGradient>
<linearGradient id="paint2_linear_104_190" x1="159.814" y1="131.815" x2="159.814" y2="264.894" gradientUnits="userSpaceOnUse">
<stop stop-color="white"/>
<stop offset="1" stop-color="#F2F2F2"/>
</linearGradient>
<radialGradient id="paint3_radial_104_190" cx="0" cy="0" r="1" gradientUnits="userSpaceOnUse" gradientTransform="translate(10.0949 29.2087) rotate(90) scale(29.2087 10.0949)">
<stop stop-color="#D7D7D7"/>
<stop offset="1" stop-color="#D7D7D7" stop-opacity="0"/>
</radialGradient>
<radialGradient id="paint4_radial_104_190" cx="0" cy="0" r="1" gradientUnits="userSpaceOnUse" gradientTransform="translate(170.463 150.669) rotate(90) scale(10.1731 9.32012)">
<stop stop-color="#FFBBBB"/>
<stop offset="1" stop-color="#FFBBBB" stop-opacity="0"/>
</radialGradient>
</defs>
</svg>
