<svg width="374" height="374" viewBox="0 0 374 374" fill="none" xmlns="http://www.w3.org/2000/svg">
<path fill-rule="evenodd" clip-rule="evenodd" d="M151.555 298.849C115.023 290.476 76.3132 272.859 64.0926 237.454C52.252 203.151 77.5643 170.18 96.4497 139.204C114.303 109.921 132.503 78.0659 165.952 70.384C201.824 62.1457 239.834 74.885 266.629 100.121C293.001 124.959 304.928 161.532 300.931 197.51C297.131 231.712 275.209 259.981 246.721 279.308C218.537 298.429 184.772 306.461 151.555 298.849Z" fill="url(#paint0_linear_104_239)"/>
<path d="M157.235 314.22C93.7343 314.22 123.128 233.41 188.261 236.929C237.996 270.48 215.735 314.22 157.235 314.22Z" fill="#F5F5F5"/>
<path d="M174.551 166.88C166.858 148.417 177.756 141.237 184.167 139.955C188.975 143.16 206.092 149.571 197.629 149.571C189.167 149.571 191.539 161.11 193.783 166.88C235.325 223.038 211.092 254.387 198.591 263.041C184.167 257.272 160.126 244.001 179.359 237.078C203.399 228.423 184.167 189.959 174.551 166.88Z" fill="url(#paint1_linear_104_239)"/>
<path d="M253.799 171.404C284.407 289.544 250.914 310.821 225.609 288.668C211.643 284.041 217.849 289.542 219.993 276.944C224.668 275.488 219.092 200.962 218.886 186.108C218.68 171.253 223.649 174.238 226.159 177.587C229.048 155.94 233.703 166.17 235.669 173.991C237.358 118.828 248.459 149.282 253.799 171.404Z" fill="#C4C4C4"/>
<path d="M252.558 172.164C283.166 290.305 249.673 311.581 224.368 289.429C210.403 284.802 216.608 290.302 218.752 277.704C223.427 276.248 217.851 201.723 217.645 186.868C217.439 172.014 222.408 174.998 224.919 178.347C227.808 156.7 232.462 166.931 234.429 174.752C236.117 119.588 247.218 150.042 252.558 172.164Z" fill="url(#paint2_linear_104_239)"/>
<path d="M227.288 176.764C200.017 191.801 187.359 183.03 184.438 176.764C164.527 164.925 169.146 124.516 203.235 124.516C237.323 124.516 261.377 157.968 227.288 176.764Z" fill="white"/>
<path d="M209.719 168.357L212.172 165.931C217.556 160.604 225.329 156.991 234.367 155.617C234.985 155.523 235.676 155.734 236.114 156.151L258.354 177.325C259.734 178.638 258.486 180.313 256.431 179.907L211.225 170.969C209.657 170.659 208.835 169.233 209.719 168.357Z" fill="#DF5B04"/>
<rect x="239.719" y="139.72" width="15" height="22" fill="#010101"/>
<circle r="11" transform="matrix(-1 0 0 1 239.719 150.72)" fill="#010101"/>
<circle r="11" transform="matrix(-1 0 0 1 254.719 150.72)" fill="#222222"/>
<circle r="8" transform="matrix(-1 0 0 1 254.719 150.72)" fill="#8DCCF0"/>
<ellipse opacity="0.29" rx="7" ry="7" transform="matrix(-1 8.74228e-08 8.74228e-08 1 254.719 150.72)" fill="white"/>
<ellipse rx="2.5" ry="3.79686" transform="matrix(-0.707107 0.707107 0.707107 0.707107 257.171 148.173)" fill="white"/>
<path d="M209.105 168.27L210.81 166.638C216.709 160.993 225.052 157.134 234.719 155.581C235.148 155.513 235.62 155.575 236.041 155.756L268.705 169.795C270.852 170.718 270.393 173.037 268.079 172.958L211.094 171.015C209.265 170.952 208.051 169.278 209.105 168.27Z" fill="#FF6B0A"/>
<rect x="211.719" y="140.72" width="15" height="22" fill="#010101"/>
<circle r="11" transform="matrix(-1 0 0 1 211.719 151.72)" fill="#010101"/>
<circle r="11" transform="matrix(-1 0 0 1 226.719 151.72)" fill="#222222"/>
<circle r="8" transform="matrix(-1 0 0 1 226.719 151.72)" fill="#8DCCF0"/>
<ellipse opacity="0.29" rx="7" ry="7" transform="matrix(-1 8.74228e-08 8.74228e-08 1 226.719 151.72)" fill="white"/>
<ellipse rx="2.5" ry="3.79686" transform="matrix(-0.707107 0.707107 0.707107 0.707107 229.171 149.173)" fill="white"/>
<path d="M228.631 104.642L227.837 100.456L177.801 109.945L182.105 132.645L183.864 132.311L225.593 127.048L232.142 123.156L229.15 107.377L229.396 107.364L229.359 104.638L228.631 104.642Z" fill="#0C0632"/>
<ellipse rx="26.1945" ry="2.60336" transform="matrix(-0.982491 0.186312 0.186312 0.982491 203.634 109.524)" fill="#0C0632"/>
<path d="M232.734 123.12C249.782 124.102 265.963 146.164 194.849 134.519L232.734 123.12Z" fill="#0C0632"/>
<path d="M232.852 122.935C230.198 130.831 187.177 138.568 181.362 132.699L177.951 114.444C185.538 115.47 199.036 108.621 210.706 110.623L225.613 123.886L229.359 104.638L232.852 122.935Z" fill="#494600"/>
<ellipse rx="25.4584" ry="2.60336" transform="matrix(-0.982491 0.186312 0.186312 0.982491 202.885 105.519)" fill="#0C0632"/>
<ellipse rx="25.8166" ry="2.60336" transform="matrix(-0.982491 0.186312 0.186312 0.982491 203.263 109.595)" fill="#0C0632"/>
<path d="M223.132 107.566C223.056 107.662 222.991 107.737 222.939 107.818C222.495 108.483 222.317 109.133 222.447 109.914C222.501 110.245 222.596 110.573 222.671 110.897C222.739 111.183 222.805 111.464 222.868 111.751C222.883 111.826 222.904 111.853 222.99 111.834C223.169 111.787 223.347 111.815 223.479 111.958C223.599 112.081 223.624 112.233 223.576 112.388C223.529 112.549 223.409 112.649 223.257 112.709C223.18 112.737 223.118 112.725 223.051 112.668C222.535 112.244 222.138 111.731 221.838 111.137C221.593 110.645 221.449 110.116 221.287 109.599C221.194 109.305 221.088 109.01 221.004 108.712C220.949 108.525 220.882 108.354 220.772 108.192C220.662 108.031 220.522 107.897 220.341 107.795C220.257 107.98 220.228 108.175 220.256 108.366C220.285 108.545 220.339 108.727 220.394 108.897C220.454 109.082 220.541 109.258 220.61 109.434C220.795 109.902 220.985 110.369 221.154 110.842C221.432 111.633 221.497 112.444 221.334 113.266C221.316 113.376 221.253 113.427 221.152 113.452C220.899 113.519 220.647 113.397 220.565 113.168C220.488 112.954 220.609 112.693 220.846 112.596C220.931 112.56 220.925 112.527 220.89 112.46C220.71 112.105 220.534 111.742 220.36 111.385C220.158 110.981 219.981 110.567 219.664 110.233C219.246 109.791 218.781 109.56 218.183 109.424C218.14 109.416 218.097 109.409 218.035 109.397C218.051 109.443 218.062 109.473 218.073 109.504C218.779 111.475 219.456 113.364 220.162 115.335C220.202 115.447 220.202 115.447 220.309 115.408C220.714 115.263 221.124 115.117 221.529 114.972C221.601 114.946 221.639 114.955 221.68 115.021C221.991 115.519 222.428 115.868 222.994 116.044C223.112 116.083 223.227 116.145 223.343 116.195C223.479 115.848 223.736 115.549 223.82 115.168C223.887 114.857 223.919 114.541 223.869 114.225C223.861 114.154 223.884 114.122 223.946 114.1C224.361 113.952 224.771 113.805 225.186 113.656C225.258 113.63 225.283 113.604 225.254 113.523C224.544 111.542 223.862 109.637 223.153 107.656C223.159 107.642 223.152 107.622 223.132 107.566ZM223.006 108.634C223.018 108.635 223.033 108.629 223.045 108.631C223.058 108.667 223.071 108.702 223.083 108.738C223.424 109.69 223.738 110.566 224.079 111.519C224.136 111.676 224.136 111.676 223.972 111.735C223.91 111.757 223.874 111.753 223.837 111.697C223.708 111.531 223.534 111.432 223.332 111.401C223.246 111.386 223.219 111.344 223.204 111.269C223.124 110.901 223.047 110.526 222.952 110.164C222.857 109.784 222.84 109.48 222.91 109.093C222.934 108.935 222.974 108.788 223.006 108.634ZM218.789 110.161C218.799 110.157 218.802 110.151 218.812 110.147C218.858 110.177 218.903 110.206 218.943 110.238C219.252 110.472 219.502 110.653 219.683 110.996C219.909 111.432 220.124 111.872 220.345 112.31C220.377 112.368 220.376 112.414 220.327 112.472C220.193 112.629 220.119 112.81 220.12 113.023C220.12 113.12 220.071 113.161 219.929 113.183C219.841 113.197 219.85 113.125 219.834 113.079C219.487 112.112 219.168 111.22 218.82 110.248C218.803 110.219 218.793 110.188 218.789 110.161ZM223.478 113.101C223.502 113.087 223.531 113.071 223.563 113.048C223.86 112.861 224.055 112.613 224.039 112.245C224.038 112.194 224.051 112.166 224.099 112.155C224.135 112.142 224.171 112.129 224.207 112.116C224.258 112.098 224.286 112.111 224.304 112.162C224.441 112.544 224.579 112.931 224.711 113.315C224.718 113.335 224.694 113.396 224.673 113.403C224.398 113.507 224.117 113.608 223.838 113.702C223.817 113.71 223.764 113.689 223.751 113.67C223.662 113.484 223.572 113.298 223.478 113.101ZM221.285 113.887C221.337 114.098 221.381 114.301 221.432 114.507C221.447 114.564 221.406 114.579 221.365 114.594C221.103 114.687 220.845 114.774 220.586 114.873C220.504 114.902 220.467 114.881 220.445 114.803C220.328 114.459 220.201 114.12 220.077 113.774C220.02 113.616 220.02 113.616 220.179 113.559C220.225 113.542 220.266 113.528 220.301 113.578C220.501 113.846 220.78 113.93 221.098 113.914C221.165 113.907 221.228 113.89 221.285 113.887ZM221.857 112.062C222.141 112.402 222.421 112.733 222.769 113.011C222.649 113.174 222.537 113.329 222.417 113.481C222.402 113.504 222.348 113.512 222.316 113.506C222.154 113.472 221.998 113.425 221.836 113.391C221.786 113.38 221.766 113.358 221.776 113.303C221.854 112.925 221.862 112.543 221.85 112.156C221.857 112.125 221.856 112.091 221.857 112.062ZM223.406 114.305C223.522 114.563 223.43 115.193 223.284 115.32C223.277 115.317 223.27 115.313 223.27 115.313C223.175 115.049 223.075 114.786 222.988 114.524C222.98 114.504 223.005 114.46 223.024 114.448C223.148 114.392 223.278 114.351 223.406 114.305ZM222.857 115.484C222.591 115.436 222.14 114.983 222.103 114.766C222.216 114.726 222.339 114.682 222.451 114.641C222.518 114.617 222.548 114.636 222.569 114.697C222.646 114.911 222.723 115.124 222.799 115.338C222.821 115.382 222.837 115.428 222.857 115.484ZM223.083 113.967C223.016 113.991 222.946 114.022 222.876 114.035C222.856 114.043 222.8 114.017 222.8 113.999C222.75 113.764 222.824 113.519 223.021 113.391C223.064 113.365 223.093 113.366 223.12 113.408C223.189 113.538 223.254 113.67 223.326 113.805C223.349 113.854 223.326 113.886 223.279 113.902C223.216 113.919 223.149 113.943 223.083 113.967ZM222.14 114.305C222.078 114.327 222.022 114.347 221.961 114.369C221.901 114.396 221.856 114.383 221.842 114.314C221.812 114.181 221.782 114.048 221.757 113.913C221.745 113.848 221.771 113.822 221.839 113.82C222.054 113.807 222.303 113.953 222.379 114.15C222.387 114.17 222.364 114.219 222.345 114.231C222.275 114.262 222.207 114.281 222.14 114.305Z" fill="#FFD500"/>
<ellipse rx="13.0071" ry="14.1974" transform="matrix(-0.761754 0.647867 0.647867 0.761754 192.093 167.652)" fill="url(#paint3_radial_104_239)"/>
<path d="M228.971 176.985C259.579 295.125 226.086 316.401 200.781 294.249C186.816 289.622 193.021 295.123 195.165 282.524C199.84 281.068 194.264 206.543 194.058 191.688C193.852 176.834 198.821 179.819 201.331 183.168C204.22 161.52 208.875 171.751 210.842 179.572C212.53 124.409 223.631 154.862 228.971 176.985Z" fill="#C4C4C4"/>
<path d="M227.167 177.849C257.776 295.989 224.282 317.265 198.977 295.113C185.012 290.486 191.217 295.986 193.361 283.388C198.036 281.932 192.46 207.407 192.254 192.552C192.048 177.698 197.017 180.682 199.528 184.031C202.417 162.384 207.072 172.615 209.038 180.436C210.726 125.272 221.828 155.726 227.167 177.849Z" fill="url(#paint4_linear_104_239)"/>
<rect x="88.7185" y="263.041" width="221" height="60" fill="url(#paint5_linear_104_239)"/>
<defs>
<linearGradient id="paint0_linear_104_239" x1="152.749" y1="299.78" x2="221.251" y2="73.1693" gradientUnits="userSpaceOnUse">
<stop stop-color="#A5DEFF"/>
<stop offset="1" stop-color="#BDE7FF"/>
</linearGradient>
<linearGradient id="paint1_linear_104_239" x1="194.482" y1="263.041" x2="194.482" y2="263.041" gradientUnits="userSpaceOnUse">
<stop stop-color="#F4F4F4"/>
<stop offset="1" stop-color="white"/>
</linearGradient>
<linearGradient id="paint2_linear_104_239" x1="228.699" y1="292.712" x2="186.159" y2="195.36" gradientUnits="userSpaceOnUse">
<stop stop-color="#F4F4F4"/>
<stop offset="1" stop-color="white"/>
</linearGradient>
<radialGradient id="paint3_radial_104_239" cx="0" cy="0" r="1" gradientUnits="userSpaceOnUse" gradientTransform="translate(13.0071 14.1974) rotate(90) scale(14.1974 13.0071)">
<stop stop-color="#FFBBBB"/>
<stop offset="1" stop-color="#FFBBBB" stop-opacity="0"/>
</radialGradient>
<linearGradient id="paint4_linear_104_239" x1="239.341" y1="237.137" x2="189.981" y2="237.267" gradientUnits="userSpaceOnUse">
<stop stop-color="#F4F4F4"/>
<stop offset="1" stop-color="white"/>
</linearGradient>
<linearGradient id="paint5_linear_104_239" x1="199.219" y1="263.041" x2="199.219" y2="323.041" gradientUnits="userSpaceOnUse">
<stop stop-color="#FAFAFA" stop-opacity="0"/>
<stop offset="1" stop-color="white"/>
</linearGradient>
</defs>
</svg>
