<svg width="374" height="374" viewBox="0 0 374 374" fill="none" xmlns="http://www.w3.org/2000/svg">
<path fill-rule="evenodd" clip-rule="evenodd" d="M300.389 230.287C290.073 265.816 270.521 302.968 234.938 313.01C200.462 322.739 169.4 295.929 139.941 275.565C112.092 256.315 81.7276 236.577 76.0486 203.178C69.9583 167.359 84.6625 130.621 111.048 105.641C137.018 81.0555 173.736 71.3698 208.966 77.3436C242.458 83.0226 269.078 106.225 286.514 135.394C303.763 164.251 309.77 197.981 300.389 230.287Z" fill="url(#paint0_linear_104_278)"/>
<path d="M307.065 207.233C151.633 189.156 160.683 236.143 184.637 261.896C187.338 277.196 224.033 272.514 242.042 268.26C245.298 262.709 256.937 251.133 277.447 249.242C297.957 247.352 295.144 242.099 291.173 239.709C321.908 233.309 308.98 229.453 298.674 228.325C387.813 225.132 336.275 210.17 307.065 207.233Z" fill="#D9D9D9"/>
<path d="M310.967 209.068C152.488 192.742 163.193 240.001 188.355 265.671C191.59 281.062 228.716 275.893 246.875 271.385C250.004 265.749 261.455 253.937 282.23 251.78C303.004 249.624 299.977 244.363 295.867 242.002C326.883 235.175 313.626 231.445 303.12 230.434C380.839 219.591 340.734 211.672 310.967 209.068Z" fill="url(#paint1_linear_104_278)"/>
<line x1="1.5" y1="-1.5" x2="29.5388" y2="-1.5" transform="matrix(-0.93696 0.349437 0.349437 0.93696 170.507 283.884)" stroke="#FF6B0A" stroke-width="3" stroke-linecap="round"/>
<path d="M130.125 298.757L141.626 292.08" stroke="#FF6B0A" stroke-width="3" stroke-linecap="round"/>
<path d="M132.839 292.06L141.612 291.498" stroke="#FF6B0A" stroke-width="3" stroke-linecap="round"/>
<path d="M134.26 303.099L142.634 292.242" stroke="#FF6B0A" stroke-width="3" stroke-linecap="round"/>
<path d="M75.7223 182.623C231.9 192.359 214.671 237.001 186.535 258.104C181.167 272.684 145.881 261.577 128.91 254.202C126.688 248.161 117.283 234.707 97.4327 229.214C77.582 223.721 81.2811 219.05 85.612 217.401C56.4961 205.658 69.9029 204.153 80.2458 204.868C-6.91845 185.939 46.4543 180.341 75.7223 182.623Z" fill="#D9D9D9"/>
<path d="M71.1873 185.793C230.052 197.792 211.148 242.407 181.837 263.215C175.927 277.79 140.303 266.128 123.23 258.476C121.149 252.374 111.97 238.721 91.9062 232.92C71.8423 227.118 75.753 222.477 80.2163 220.881C50.899 208.668 64.6072 207.345 75.1259 208.21C0.556379 183.775 41.4295 183.084 71.1873 185.793Z" fill="url(#paint2_linear_104_278)"/>
<path d="M238.278 241.027C231.559 272.359 186.361 319.826 59.3242 259.046C120.253 233.042 241.344 193.033 238.278 241.027Z" fill="url(#paint3_linear_104_278)"/>
<path d="M187.249 159.004C181.204 144.494 189.768 138.852 194.806 137.844C198.585 140.363 212.036 145.401 205.386 145.401C198.736 145.401 200.6 154.47 202.363 159.004C235.01 203.137 215.966 227.773 206.142 234.575C194.806 230.041 175.914 219.612 191.028 214.171C209.92 207.369 194.806 177.141 187.249 159.004Z" fill="white"/>
<ellipse cx="180.499" cy="270.751" rx="10.8225" ry="41.9399" transform="rotate(74.2873 180.499 270.751)" fill="url(#paint4_radial_104_278)"/>
<line x1="1.5" y1="-1.5" x2="29.5389" y2="-1.5" transform="matrix(-0.978284 0.20727 0.20727 0.978284 154.914 282.157)" stroke="#FF6B0A" stroke-width="3" stroke-linecap="round"/>
<path d="M113.038 292.214L125.236 286.92" stroke="#FF6B0A" stroke-width="3" stroke-linecap="round"/>
<path d="M116.512 285.878L125.291 286.34" stroke="#FF6B0A" stroke-width="3" stroke-linecap="round"/>
<path d="M116.64 297.008L126.219 287.198" stroke="#FF6B0A" stroke-width="3" stroke-linecap="round"/>
<path d="M228.694 166.772C207.263 178.589 197.315 171.696 195.02 166.772C179.372 157.468 183.002 125.711 209.791 125.711C236.581 125.711 255.484 152 228.694 166.772Z" fill="white"/>
<path d="M214.013 158.101L217.425 155.904C223.554 151.957 230.941 150.457 238.123 151.701C238.529 151.772 238.855 152.075 238.954 152.475L246.005 181.031C246.461 182.877 244.325 184.258 242.829 183.084L213.906 160.396C213.143 159.798 213.198 158.626 214.013 158.101Z" fill="#DF5B04"/>
<path d="M213.404 157.938L216.201 156.198C222.795 152.097 230.649 150.519 238.315 151.754C238.615 151.803 238.883 151.968 239.062 152.213L256.719 176.507C257.934 178.178 256.127 180.369 254.256 179.496L213.558 160.507C212.505 160.015 212.417 158.551 213.404 157.938Z" fill="#FF6B0A"/>
<circle r="2.75405" transform="matrix(-1 0 0 1 238.082 144.489)" fill="#797979"/>
<circle r="2.75405" transform="matrix(-1 0 0 1 209.791 147.243)" fill="#797979"/>
<path d="M229.749 110.093L229.125 106.803L189.803 114.26L193.186 132.1L194.568 131.837L227.362 127.701L232.508 124.643L230.157 112.242L230.35 112.232L230.321 110.089L229.749 110.093Z" fill="#0C0632"/>
<ellipse rx="20.5856" ry="2.04591" transform="matrix(-0.982491 0.186312 0.186312 0.982491 210.105 113.93)" fill="#0C0632"/>
<path d="M232.973 124.614C246.371 125.386 259.088 142.724 203.201 133.573L232.973 124.614Z" fill="#0C0632"/>
<path d="M233.066 124.469C230.981 130.674 197.172 136.754 192.602 132.142L189.921 117.796C195.884 118.602 206.491 113.22 215.663 114.793L227.378 125.216L230.322 110.089L233.066 124.469Z" fill="#494600"/>
<ellipse rx="20.0071" ry="2.04591" transform="matrix(-0.982491 0.186312 0.186312 0.982491 209.516 110.782)" fill="#0C0632"/>
<ellipse rx="20.2886" ry="2.04591" transform="matrix(-0.982491 0.186312 0.186312 0.982491 209.813 113.985)" fill="#0C0632"/>
<path d="M225.427 112.39C225.368 112.466 225.317 112.525 225.276 112.589C224.927 113.112 224.787 113.622 224.889 114.236C224.932 114.496 225.006 114.754 225.065 115.008C225.119 115.233 225.171 115.454 225.22 115.68C225.232 115.739 225.248 115.76 225.316 115.745C225.457 115.708 225.597 115.73 225.7 115.842C225.794 115.939 225.814 116.059 225.776 116.181C225.739 116.307 225.645 116.386 225.526 116.433C225.465 116.455 225.416 116.445 225.364 116.4C224.959 116.067 224.646 115.664 224.411 115.198C224.218 114.811 224.105 114.395 223.978 113.989C223.904 113.758 223.821 113.526 223.756 113.292C223.712 113.145 223.659 113.01 223.573 112.883C223.486 112.756 223.376 112.651 223.234 112.571C223.168 112.717 223.145 112.869 223.167 113.019C223.19 113.16 223.232 113.303 223.276 113.436C223.323 113.582 223.391 113.72 223.445 113.859C223.591 114.227 223.74 114.593 223.873 114.966C224.092 115.587 224.142 116.224 224.015 116.87C224 116.957 223.951 116.997 223.872 117.016C223.673 117.069 223.475 116.973 223.41 116.793C223.35 116.625 223.444 116.42 223.631 116.344C223.698 116.315 223.693 116.29 223.665 116.237C223.524 115.958 223.386 115.673 223.249 115.392C223.09 115.074 222.951 114.75 222.702 114.486C222.373 114.139 222.009 113.958 221.539 113.851C221.505 113.845 221.471 113.839 221.422 113.83C221.435 113.866 221.443 113.89 221.452 113.914C222.007 115.462 222.538 116.947 223.093 118.496C223.125 118.584 223.125 118.584 223.209 118.554C223.527 118.44 223.85 118.325 224.168 118.211C224.224 118.191 224.254 118.198 224.286 118.25C224.531 118.641 224.874 118.915 225.319 119.054C225.412 119.084 225.502 119.133 225.593 119.172C225.7 118.899 225.902 118.664 225.968 118.365C226.021 118.12 226.046 117.872 226.007 117.624C226 117.568 226.019 117.543 226.067 117.526C226.393 117.409 226.716 117.294 227.042 117.177C227.098 117.157 227.118 117.136 227.095 117.072C226.537 115.515 226.001 114.018 225.444 112.461C225.449 112.45 225.443 112.434 225.427 112.39ZM225.328 113.23C225.338 113.231 225.35 113.227 225.359 113.228C225.369 113.256 225.379 113.284 225.389 113.312C225.657 114.06 225.904 114.749 226.172 115.497C226.216 115.621 226.216 115.621 226.088 115.667C226.039 115.685 226.011 115.681 225.981 115.637C225.88 115.507 225.743 115.429 225.585 115.405C225.517 115.393 225.496 115.36 225.484 115.301C225.421 115.012 225.361 114.717 225.286 114.432C225.211 114.134 225.198 113.895 225.253 113.591C225.272 113.467 225.304 113.351 225.328 113.23ZM222.014 114.43C222.022 114.427 222.025 114.422 222.033 114.419C222.068 114.442 222.104 114.466 222.136 114.491C222.379 114.674 222.575 114.816 222.717 115.086C222.894 115.429 223.064 115.775 223.237 116.119C223.262 116.164 223.262 116.201 223.223 116.246C223.118 116.37 223.06 116.512 223.06 116.679C223.061 116.756 223.022 116.788 222.91 116.805C222.841 116.816 222.848 116.76 222.835 116.724C222.563 115.963 222.312 115.263 222.038 114.498C222.026 114.476 222.017 114.452 222.014 114.43ZM225.7 116.741C225.718 116.73 225.741 116.717 225.766 116.699C226 116.552 226.153 116.357 226.14 116.068C226.139 116.028 226.15 116.006 226.188 115.997C226.216 115.987 226.244 115.977 226.272 115.967C226.312 115.952 226.334 115.963 226.349 116.003C226.456 116.303 226.565 116.607 226.668 116.909C226.674 116.925 226.655 116.972 226.639 116.978C226.423 117.06 226.201 117.139 225.982 117.213C225.966 117.219 225.924 117.202 225.914 117.188C225.844 117.042 225.773 116.895 225.7 116.741ZM223.976 117.358C224.017 117.524 224.052 117.683 224.091 117.845C224.103 117.891 224.071 117.902 224.039 117.914C223.833 117.987 223.63 118.055 223.427 118.133C223.362 118.156 223.333 118.139 223.316 118.078C223.224 117.808 223.124 117.541 223.026 117.269C222.982 117.145 222.982 117.145 223.107 117.101C223.143 117.088 223.175 117.076 223.203 117.116C223.36 117.326 223.579 117.392 223.829 117.379C223.882 117.374 223.931 117.361 223.976 117.358ZM224.426 115.924C224.649 116.192 224.869 116.451 225.142 116.669C225.048 116.798 224.96 116.92 224.866 117.039C224.854 117.057 224.811 117.064 224.787 117.059C224.659 117.032 224.537 116.995 224.409 116.968C224.37 116.96 224.354 116.943 224.362 116.899C224.423 116.602 224.429 116.302 224.42 115.998C224.425 115.974 224.425 115.947 224.426 115.924ZM225.643 117.687C225.734 117.889 225.661 118.385 225.547 118.484C225.542 118.482 225.536 118.479 225.536 118.479C225.462 118.271 225.383 118.064 225.314 117.859C225.308 117.843 225.328 117.809 225.343 117.799C225.44 117.755 225.542 117.723 225.643 117.687ZM225.212 118.614C225.003 118.575 224.648 118.219 224.619 118.049C224.707 118.017 224.804 117.983 224.893 117.951C224.945 117.932 224.968 117.947 224.985 117.995C225.046 118.163 225.106 118.331 225.166 118.499C225.183 118.533 225.196 118.57 225.212 118.614ZM225.389 117.421C225.337 117.44 225.282 117.464 225.226 117.475C225.21 117.481 225.167 117.46 225.166 117.447C225.127 117.262 225.186 117.069 225.341 116.969C225.374 116.948 225.397 116.949 225.418 116.982C225.473 117.084 225.523 117.188 225.58 117.294C225.598 117.333 225.58 117.357 225.543 117.37C225.494 117.384 225.441 117.402 225.389 117.421ZM224.648 117.687C224.6 117.704 224.555 117.72 224.507 117.737C224.46 117.758 224.425 117.748 224.414 117.693C224.39 117.589 224.367 117.485 224.347 117.379C224.338 117.328 224.358 117.307 224.412 117.306C224.58 117.295 224.776 117.41 224.836 117.565C224.842 117.581 224.824 117.619 224.809 117.629C224.754 117.653 224.7 117.668 224.648 117.687Z" fill="#FFD500"/>
<ellipse rx="10.2219" ry="11.1574" transform="matrix(-0.761754 0.647867 0.647867 0.761754 201.035 159.611)" fill="url(#paint5_radial_104_278)"/>
<defs>
<linearGradient id="paint0_linear_104_278" x1="301.374" y1="229.162" x2="81.9208" y2="148.838" gradientUnits="userSpaceOnUse">
<stop stop-color="#A5DEFF"/>
<stop offset="1" stop-color="#BDE7FF"/>
</linearGradient>
<linearGradient id="paint1_linear_104_278" x1="252.066" y1="203.949" x2="259.673" y2="271.347" gradientUnits="userSpaceOnUse">
<stop stop-color="white"/>
<stop offset="1" stop-color="#F5F5F5"/>
</linearGradient>
<linearGradient id="paint2_linear_104_278" x1="130.063" y1="191.186" x2="110.641" y2="256.172" gradientUnits="userSpaceOnUse">
<stop stop-color="white"/>
<stop offset="1" stop-color="#F9F9F9"/>
</linearGradient>
<linearGradient id="paint3_linear_104_278" x1="186.299" y1="225.293" x2="111.066" y2="276.421" gradientUnits="userSpaceOnUse">
<stop stop-color="white"/>
<stop offset="1" stop-color="#F5F5F5"/>
</linearGradient>
<radialGradient id="paint4_radial_104_278" cx="0" cy="0" r="1" gradientUnits="userSpaceOnUse" gradientTransform="translate(180.499 270.751) rotate(90) scale(41.9399 10.8225)">
<stop stop-color="#E8E8E8"/>
<stop offset="1" stop-color="#EFEFEF" stop-opacity="0.5"/>
</radialGradient>
<radialGradient id="paint5_radial_104_278" cx="0" cy="0" r="1" gradientUnits="userSpaceOnUse" gradientTransform="translate(10.2219 11.1574) rotate(90) scale(11.1574 10.2219)">
<stop stop-color="#FFBBBB"/>
<stop offset="1" stop-color="#FFBBBB" stop-opacity="0"/>
</radialGradient>
</defs>
</svg>
