<svg width="100" height="32" viewBox="0 0 100 32" fill="none" xmlns="http://www.w3.org/2000/svg">
<path fill-rule="evenodd" clip-rule="evenodd" d="M43.8462 1.104H0V31.104H43.8462L55.3846 16.104L43.8462 1.104ZM19.6567 14.0752C19.5886 14.0207 19.5215 13.9662 19.4547 13.9121C19.286 13.7753 19.1199 13.6407 18.949 13.5116C18.4829 13.1558 17.9766 12.8725 17.3959 12.7462C16.7549 12.606 16.1076 12.5552 15.4681 12.7493C14.556 13.0249 13.9212 13.6255 13.5015 14.4618C13.1531 15.1579 13.0602 15.8956 13.1516 16.6625C13.2243 17.2631 13.4179 17.8206 13.7725 18.315C14.3176 19.0742 15.0608 19.5131 15.9899 19.6286C16.8261 19.7334 17.6359 19.6286 18.4024 19.2621C18.6641 19.1366 18.6641 19.1343 18.6641 18.8453V18.8401C18.6641 18.7697 18.6643 18.6995 18.6645 18.6294V18.6292V18.629V18.6289C18.6648 18.4889 18.6651 18.3491 18.6641 18.2087C18.6639 18.1805 18.6643 18.1564 18.6646 18.1359C18.6656 18.0774 18.666 18.0474 18.6512 18.0322C18.6355 18.0161 18.6028 18.0165 18.5356 18.0173C18.5187 18.0175 18.4997 18.0177 18.4783 18.0177H16.0472C16.0256 18.0177 16.0065 18.018 15.9895 18.0182H15.9893H15.9892C15.921 18.019 15.8878 18.0194 15.872 18.0031C15.857 17.9877 15.8577 17.9573 15.8589 17.8979C15.8593 17.8781 15.8598 17.8551 15.8598 17.8283C15.8588 17.1815 15.8591 16.5347 15.8595 15.8879L15.8595 15.8825C15.8597 15.5609 15.8598 15.2393 15.8598 14.9176L15.86 14.9014L15.8605 14.882C15.8612 14.8579 15.8619 14.8335 15.8598 14.8098C15.8552 14.7529 15.8753 14.7221 15.9373 14.7282C15.9611 14.7303 15.9856 14.7296 16.0098 14.7289L16.0099 14.7289C16.0219 14.7286 16.0339 14.7282 16.0457 14.7282H22.1915C22.2318 14.7282 22.2658 14.7359 22.2597 14.7867C22.2569 14.8173 22.2762 14.8379 22.2959 14.8589C22.3199 14.8844 22.3445 14.9105 22.3309 14.9561C22.3191 14.9954 22.3221 15.0383 22.3251 15.0814L22.3251 15.0815C22.3264 15.1009 22.3278 15.1203 22.3278 15.1394L22.3277 16.2449C22.3274 17.7187 22.3272 19.1932 22.3309 20.6666C22.3309 20.7867 22.2937 20.8622 22.2024 20.9377C21.058 21.8848 19.7713 22.547 18.3157 22.875C17.4548 23.0691 16.583 23.123 15.7019 23.0521C14.6613 22.969 13.6719 22.7026 12.7583 22.1974C11.0813 21.2703 10.0252 19.8627 9.539 18.0254C9.32531 17.2138 9.26027 16.3868 9.3284 15.5521C9.5839 12.4567 11.761 10.0419 14.6784 9.37041C15.5114 9.17791 16.3523 9.15019 17.2008 9.20717C17.8512 9.25183 18.4907 9.35347 19.1163 9.53828C20.0531 9.81702 20.88 10.2975 21.6325 10.9135C21.7208 10.9859 21.8075 11.0583 21.8927 11.1322C22.0011 11.2246 22.0042 11.277 21.9097 11.3909C21.4359 11.9608 20.962 12.529 20.4867 13.0973C20.2497 13.3822 20.0128 13.6671 19.7744 13.9505L19.7652 13.9625L19.756 13.9748C19.7298 14.0102 19.7019 14.0478 19.6567 14.0752ZM31.7515 9.18092C33.5152 9.19478 35.2216 9.81542 36.654 11.1183C37.7658 12.1316 38.4471 13.3945 38.7196 14.8683C39.0231 16.5084 38.8048 18.0793 37.9903 19.5438C37.024 21.281 35.5499 22.3945 33.6267 22.8981C31.9714 23.3323 30.33 23.2446 28.7459 22.587C26.6834 21.7292 25.3502 20.1891 24.7246 18.0731C24.1656 16.1804 24.3684 14.3401 25.3687 12.6244C26.3427 10.952 27.8091 9.90474 29.6828 9.41654C30.3285 9.24868 30.937 9.18246 31.7515 9.18092ZM31.3334 12.703C30.3656 12.7246 29.3684 13.2759 28.7444 14.4263C28.3201 15.2071 28.221 16.0495 28.3821 16.9196C28.509 17.6065 28.8079 18.2148 29.3034 18.7138C30.0761 19.493 31.0222 19.7995 32.1061 19.6748C33.2272 19.5469 34.0603 18.974 34.5945 17.99C35.0482 17.1522 35.1427 16.2559 34.9305 15.3334C34.5806 13.8026 33.2969 12.6984 31.3334 12.703Z" fill="#FF6B0A"/>
<path fill-rule="evenodd" clip-rule="evenodd" d="M99.2309 1.104H55.3848V31.104H99.2309V1.104ZM69.7687 9.36394V15.9076V22.4204C69.7687 22.4343 69.769 22.4482 69.7694 22.462L69.7694 22.4621V22.4621C69.77 22.4897 69.7707 22.517 69.7687 22.5436C69.7625 22.6191 69.7826 22.6637 69.8693 22.6514C69.89 22.6494 69.9106 22.65 69.9313 22.6507C69.9416 22.6511 69.9519 22.6514 69.9622 22.6514C70.3278 22.6514 70.6936 22.6516 71.0595 22.6518H71.0599H71.0602H71.0629C71.7946 22.6521 72.5268 22.6524 73.2589 22.6514C73.282 22.6514 73.3024 22.6517 73.3205 22.6519C73.391 22.6528 73.4253 22.6532 73.4416 22.6363C73.457 22.6203 73.4563 22.5887 73.455 22.5273V22.5272C73.4545 22.5065 73.454 22.4824 73.454 22.4543V9.38242C73.454 9.37216 73.4537 9.36189 73.4533 9.35162C73.4526 9.33109 73.452 9.31055 73.454 9.29002C73.4618 9.21302 73.4354 9.17298 73.3518 9.18222C73.3354 9.18426 73.3182 9.18359 73.3008 9.18291L73.2949 9.18268C73.2881 9.18243 73.2813 9.18222 73.2744 9.18222C72.905 9.18222 72.5354 9.18205 72.1658 9.18188H72.1656H72.1655C71.4258 9.18153 70.6859 9.18119 69.9467 9.18222C69.9248 9.18222 69.9056 9.18193 69.8887 9.18168H69.8886C69.8277 9.18077 69.7971 9.18031 69.7819 9.19538C69.7667 9.21057 69.7672 9.24155 69.7681 9.30375C69.7684 9.32123 69.7687 9.34118 69.7687 9.36394ZM88.1242 9.18267H82.6272C80.7953 9.18267 78.9635 9.18267 77.1332 9.18113C77.1257 9.18113 77.1182 9.18118 77.1107 9.18125C77.1043 9.18131 77.098 9.18139 77.0916 9.18147C77.0643 9.18181 77.0371 9.18215 77.0093 9.18113C76.9474 9.17805 76.9257 9.20731 76.9303 9.26429C76.9314 9.28169 76.931 9.2984 76.9307 9.31534C76.9305 9.3239 76.9303 9.33251 76.9303 9.34129V12.4676L76.9302 12.5C76.9299 12.567 76.9298 12.6001 76.9462 12.6162C76.9622 12.6319 76.9939 12.6316 77.0563 12.6311L77.0991 12.6308H80.5522C80.665 12.6308 80.7207 12.6308 80.7483 12.6587C80.7752 12.6859 80.7752 12.7398 80.7752 12.8464V22.4855C80.7752 22.504 80.775 22.5204 80.7747 22.535V22.5351C80.774 22.5903 80.7735 22.6193 80.7878 22.6344C80.8034 22.6509 80.8368 22.6508 80.9067 22.6504L80.9409 22.6503H80.9873H84.2546C84.3586 22.6503 84.41 22.6503 84.4355 22.6246C84.4606 22.5993 84.4606 22.5493 84.4606 22.4501V12.811C84.4606 12.7902 84.4603 12.7718 84.46 12.7555L84.46 12.7553C84.4591 12.6958 84.4586 12.6648 84.4739 12.6488C84.4904 12.6314 84.5255 12.6316 84.5988 12.6321L84.6448 12.6324H88.1599C88.3116 12.6324 88.3116 12.6324 88.3132 12.483V12.4368V9.37209C88.3132 9.35079 88.3134 9.33185 88.3136 9.31502V9.31485C88.3144 9.24718 88.3148 9.21355 88.2982 9.19708C88.2818 9.18081 88.2488 9.18126 88.1833 9.18216H88.1832C88.1659 9.1824 88.1464 9.18267 88.1242 9.18267Z" fill="#010101"/>
</svg>
